<svg xmlns="http://www.w3.org/2000/svg" width="25.934" height="31.122" viewBox="0 0 25.934 31.122"><defs><style>.a{fill:#fafafa;}</style></defs><g transform="translate(0)"><path class="a" d="M264.806,8.493l-6.322-6.322A4.924,4.924,0,0,0,255.81.854V11.167h10.313A4.923,4.923,0,0,0,264.806,8.493Z" transform="translate(-240.249 -0.793)"/><path class="a" d="M51.458,12.967a1.937,1.937,0,0,1-1.945-1.945V0H38.491a1.875,1.875,0,0,0-1.378.567,1.875,1.875,0,0,0-.567,1.378V29.176a1.937,1.937,0,0,0,1.945,1.945H60.536a1.937,1.937,0,0,0,1.945-1.945V12.967Z" transform="translate(-36.546)"/></g></svg>