<svg xmlns="http://www.w3.org/2000/svg" width="26.954" height="26.954" viewBox="0 0 26.954 26.954"><defs><style>.a{fill:#fafafa;}</style></defs><path class="a" d="M39.019,281.374a2.318,2.318,0,0,0,1.052-1.443,2.344,2.344,0,0,0-1.494-2.747l-1.13,4.5A2.316,2.316,0,0,0,39.019,281.374Z" transform="translate(-35.475 -262.591)"/><ellipse class="a" cx="2.762" cy="2.762" rx="2.762" ry="2.762" transform="translate(9.454 11.976)"/><path class="a" d="M6.657,110.508a4.461,4.461,0,0,1,7.885.434l6.675-1.675a10.707,10.707,0,0,1,.454-1.757,4.458,4.458,0,0,0,.36-2.258,4.5,4.5,0,0,0-1.486-1.837,7.656,7.656,0,0,1-1.583-1.752,7.767,7.767,0,0,1-.746-2.276,4.5,4.5,0,0,0-.838-2.174,4.5,4.5,0,0,0-2.174-.838,7.768,7.768,0,0,1-2.276-.746,7.654,7.654,0,0,1-1.752-1.583A4.5,4.5,0,0,0,9.339,92.56a4.457,4.457,0,0,0-2.258.36,10.707,10.707,0,0,1-1.757.454l-1.836,7.317a3.914,3.914,0,0,1-1.9,7.582L0,114.591l6.034-1.514A4.431,4.431,0,0,1,6.657,110.508ZM16.7,106.753h1.673v1.582H16.7Zm-4.482-8.722a4.344,4.344,0,1,1-4.344,4.344,4.349,4.349,0,0,1,4.344-4.344Zm-5.678-2.06H8.211v1.582H6.538ZM4.6,111.586H2.925V110H4.6Z" transform="translate(0 -87.638)"/><path class="a" d="M126.411,21.2l4.032-1.012A22.361,22.361,0,0,0,110.253,0l-1.012,4.032c.274-.074.558-.164.848-.257a7.726,7.726,0,0,1,2.307-.488,3.235,3.235,0,0,1,.843.107,5.737,5.737,0,0,1,2.6,1.955,6.455,6.455,0,0,0,1.37,1.273,6.558,6.558,0,0,0,1.819.569,5.639,5.639,0,0,1,2.957,1.265,5.64,5.64,0,0,1,1.266,2.957,6.556,6.556,0,0,0,.569,1.819,6.457,6.457,0,0,0,1.273,1.37,5.737,5.737,0,0,1,1.955,2.6,5.582,5.582,0,0,1-.381,3.15c-.093.29-.184.574-.257.848Z" transform="translate(-103.49 0)"/><path class="a" d="M146.727,423.338a2.891,2.891,0,0,0-2.157,2.672l5.355-1.344a2.884,2.884,0,0,0-3.2-1.328Z" transform="translate(-136.959 -400.966)"/></svg>