<svg xmlns="http://www.w3.org/2000/svg" xmlns:xlink="http://www.w3.org/1999/xlink" width="31.561" height="32.996" viewBox="0 0 31.561 32.996"><defs><style>.a{fill:#fafafa;}.b{clip-path:url(#a);}</style><clipPath id="a"><rect class="a" width="31.561" height="32.996" transform="translate(0)"/></clipPath></defs><g class="b"><g transform="translate(0 1.704)"><g transform="translate(11.836 0)"><path class="a" d="M8.25.688a3.945,3.945,0,1,0,7.89,0H8.25Z" transform="translate(-8.25 -0.688)"/></g><g transform="translate(0 0)"><path class="a" d="M31.064,4.763,24.16.818a.987.987,0,0,0-.489-.13H21.7a5.918,5.918,0,1,1-11.835,0H7.891A.992.992,0,0,0,7.4.818L.5,4.763a.986.986,0,0,0-.46,1.126l1.973,6.9A.989.989,0,0,0,3.2,13.48l2.72-.679V29.29a.987.987,0,0,0,.986.986H24.657a.987.987,0,0,0,.986-.986V12.8l2.72.679a.989.989,0,0,0,1.187-.686l1.973-6.9A.986.986,0,0,0,31.064,4.763Z" transform="translate(0 -0.688)"/></g></g></g></svg>