<svg xmlns="http://www.w3.org/2000/svg" width="60" height="60" viewBox="0 0 60 60"><defs><style>.a{fill:#fafafa;}</style></defs><path class="a" d="M30,26a7,7,0,1,0-7-7A7.008,7.008,0,0,0,30,26Zm0-12a5,5,0,1,1-5,5A5.006,5.006,0,0,1,30,14Z"/><path class="a" d="M29.823,54.757,45.164,32.6c5.754-7.671,4.922-20.28-1.781-26.982a19.175,19.175,0,0,0-27.12,0c-6.7,6.7-7.535,19.311-1.8,26.952ZM17.677,7.031a17.177,17.177,0,0,1,24.292,0c6.05,6.049,6.795,17.437,1.573,24.4L29.823,51.243,16.082,31.4C10.882,24.468,11.628,13.08,17.677,7.031Z"/><path class="a" d="M42.117,43.007a1,1,0,0,0-.234,1.986C52.4,46.231,58,49.567,58,51.5,58,54.214,47.348,58,30,58S2,54.214,2,51.5c0-1.933,5.6-5.269,16.117-6.507a1,1,0,0,0-.234-1.986C7.354,44.247,0,47.739,0,51.5,0,55.724,10.305,60,30,60s30-4.276,30-8.5C60,47.739,52.646,44.247,42.117,43.007Z"/></svg>