<svg xmlns="http://www.w3.org/2000/svg" width="337.827" height="42.856" viewBox="0 0 337.827 42.856"><defs><style>.a,.d{fill:#ffe900;}.a{font-size:24px;font-family:ProximaNova-Extrabld, Proxima Nova;}.a,.b{letter-spacing:-0.02em;}.b{fill:#1a1a1a;font-size:25px;font-family:LucidaGrande, Lucida Grande;text-decoration:underline;}.c{font-family:ProximaNova-Regular, Proxima Nova;}</style></defs><text class="a" transform="translate(65.729 27.582)"><tspan x="0" y="0">Instant Delivery</tspan></text><text class="b" transform="translate(277.827 29.264)"><tspan x="0" y="0">₱</tspan><tspan class="c" y="0">209</tspan></text><path class="d" d="M41,30h2.219v.74H41Z" transform="translate(-11.418 -10.07)"/><path class="d" d="M32,37.74v.74h4.437v-.74A.74.74,0,0,0,35.7,37H32.74A.74.74,0,0,0,32,37.74Z" transform="translate(-9.074 -11.893)"/><path class="d" d="M3.035,14.846a11,11,0,0,0,2.713,6.569l1.175-1.175,1.046,1.046L6.8,22.458a11.228,11.228,0,0,0,1.39,1.028V21.5a.739.739,0,0,1,.74-.74H20.758a.739.739,0,0,1,.74.74v.87a11.092,11.092,0,0,0,3.672-7.526H23.716V13.367h1.441a11.033,11.033,0,0,0-2.717-6.553l-1.16,1.16L20.235,6.928l1.16-1.16a11.028,11.028,0,0,0-6.553-2.717V4.492H13.363V3.051A11.033,11.033,0,0,0,6.81,5.768l1.16,1.16L6.923,7.973l-1.16-1.16a11.028,11.028,0,0,0-2.717,6.553H4.488v1.479ZM13.363,5.971h1.479V13.8l3.481,3.481-1.046,1.046-3.7-3.7a.736.736,0,0,1-.217-.523Z" transform="translate(-1.53 -3.051)"/><path class="d" d="M12,29H22.354v4.437H12Z" transform="translate(-3.865 -9.81)"/><path class="d" d="M46,28h4.437v2.958H46Z" transform="translate(-12.721 -9.549)"/><path class="d" d="M55.479,27.618,54,28.358V30.4l1.479.74Z" transform="translate(-14.804 -9.45)"/><path class="d" d="M42.122,34H40.447v9.614a3.7,3.7,0,0,1-3.7,3.7H33.791a.739.739,0,0,1-.74-.74v-7.4H27.135A8.145,8.145,0,0,0,19,47.312V50.27H40.14l5.383-5.383ZM30.093,47.312H24.177V45.833h5.916Zm0-2.958H24.177V42.875h5.916Z" transform="translate(-5.688 -11.112)"/><path class="d" d="M54,60.219A2.955,2.955,0,0,0,56.848,58H51.142A2.955,2.955,0,0,0,54,60.219Z" transform="translate(-14.06 -17.363)"/><path class="d" d="M54.823,50.038l-4.409,4.409h7.829v-.74A3.691,3.691,0,0,0,54.823,50.038Z" transform="translate(-13.87 -15.289)"/><path class="d" d="M26,60.219A2.955,2.955,0,0,0,28.848,58H23.142A2.955,2.955,0,0,0,26,60.219Z" transform="translate(-6.767 -17.363)"/><path class="d" d="M1,48H9.874v1.479H1Z" transform="translate(-1 -14.758)"/><path class="d" d="M1,56H9.874v1.479H1Z" transform="translate(-1 -16.842)"/><path class="d" d="M9,52h4.437v1.479H9Z" transform="translate(-3.084 -15.8)"/><path class="d" d="M5,52H6.479v1.479H5Z" transform="translate(-2.042 -15.8)"/><path class="d" d="M15.037,39.958h4.132a9.542,9.542,0,0,1,5.1-1.479H21.311V37H10.958v1.479H8v1.479h5.429l1.938,4.522a9.58,9.58,0,0,1,.887-1.682Z" transform="translate(-2.823 -11.893)"/></svg>