<svg xmlns="http://www.w3.org/2000/svg" width="15.64" height="22.33" viewBox="0 0 15.64 22.33"><defs><style>.a{fill:#ffe900;}</style></defs><g transform="translate(0)"><path class="a" d="M23.412,12a2.855,2.855,0,1,0,2.855,2.855A2.858,2.858,0,0,0,23.412,12Zm0,4.894a2.039,2.039,0,1,1,2.039-2.039A2.041,2.041,0,0,1,23.412,16.894Z" transform="translate(-15.519 -7.106)"/><path class="a" d="M21.553,2.291a7.82,7.82,0,0,0-11.06,0,8.908,8.908,0,0,0-.736,10.991l6.266,9.048,6.256-9.036A8.911,8.911,0,0,0,21.553,2.291Zm.065,10.527L16.023,20.9l-5.6-8.092a8.048,8.048,0,0,1,.651-9.938,7,7,0,0,1,9.906,0A8.051,8.051,0,0,1,21.618,12.818Z" transform="translate(-8.203 0)"/></g></svg>