<svg xmlns="http://www.w3.org/2000/svg" xmlns:xlink="http://www.w3.org/1999/xlink" width="32.996" height="30.127" viewBox="0 0 32.996 30.127"><defs><style>.a,.c{fill:#fafafa;}.a{stroke:#707070;}.b{clip-path:url(#a);}</style><clipPath id="a"><rect class="a" width="32.996" height="30.127"/></clipPath></defs><g class="b"><g transform="translate(7.711)"><g transform="translate(0)"><path class="c" d="M18.947,28.886l-4.53-1.007V18.1a8.793,8.793,0,0,0,7.532-8.687,8.616,8.616,0,0,0-.1-1.239.579.579,0,0,0-.007-.112L20.686.532A.627.627,0,0,0,20.066,0H14.542a.628.628,0,0,0-.615.5L13.174,4.27a.628.628,0,0,0,.615.751H16.54L14.125,9.849l.288-2.883a.626.626,0,0,0-.624-.69H10.747l.794-5.56A.627.627,0,0,0,10.92,0H6.258a.627.627,0,0,0-.62.532L4.478,8.064a.525.525,0,0,0-.006.116,8.568,8.568,0,0,0-.1,1.235A8.793,8.793,0,0,0,11.907,18.1V27.88l-4.53,1.007a.628.628,0,0,0,.136,1.241h11.3a.628.628,0,0,0,.136-1.241Z" transform="translate(-4.375)"/></g></g></g></svg>