<svg xmlns="http://www.w3.org/2000/svg" width="54.854" height="40.605" viewBox="0 0 54.854 40.605"><defs><style>.a{fill:#242424;}.b{fill:#ffb655;}.c{fill:#d8143a;}</style></defs><path class="a" d="M52.36,66.494H2.493A2.493,2.493,0,0,0,0,68.987v35.618A2.493,2.493,0,0,0,2.493,107.1H52.36a2.493,2.493,0,0,0,2.493-2.493V68.987A2.493,2.493,0,0,0,52.36,66.494Z" transform="translate(0 -66.494)"/><path class="b" d="M257.9,158.861a10.852,10.852,0,0,1,1.418,2.061,10.771,10.771,0,0,1,0,10.068A10.892,10.892,0,0,1,256,174.773a10.8,10.8,0,1,0,0-17.633A10.914,10.914,0,0,1,257.9,158.861Z" transform="translate(-228.573 -145.654)"/><path class="c" d="M117.33,160.925a10.771,10.771,0,1,0,1.249,5.034A10.84,10.84,0,0,0,117.33,160.925Z" transform="translate(-86.581 -145.656)"/><path class="a" d="M21.194,97.6A10.8,10.8,0,1,1,27.427,77.98V66.494H2.493A2.493,2.493,0,0,0,0,68.987v35.618A2.493,2.493,0,0,0,2.493,107.1H27.427V95.613A10.743,10.743,0,0,1,21.194,97.6Z" transform="translate(0 -66.494)"/></svg>