<svg xmlns="http://www.w3.org/2000/svg" xmlns:xlink="http://www.w3.org/1999/xlink" width="32.996" height="30.127" viewBox="0 0 32.996 30.127"><defs><style>.a,.c{fill:#fafafa;}.a{stroke:#707070;}.b{clip-path:url(#a);}</style><clipPath id="a"><rect class="a" width="32.996" height="30.127"/></clipPath></defs><g class="b"><g transform="translate(1.417 0)"><g transform="translate(8.8 0)"><path class="c" d="M20.556,1.778a6.024,6.024,0,0,0-8.522,0l-5.9,5.9,8.53,8.53L20.556,10.3A6.031,6.031,0,0,0,20.556,1.778ZM14.508,5.265,11.823,7.911l-.008.008a.776.776,0,0,1-1.082-1.113L13.427,4.16l.008-.008a.773.773,0,1,1,1.074,1.113Z" transform="translate(-6.134 -0.013)"/></g><g transform="translate(0 8.762)"><path class="c" d="M7.7,6.12,1.757,12.066a6.043,6.043,0,0,0,8.569,8.522l5.907-5.93Z" transform="translate(0 -6.12)"/></g><g transform="translate(20.521 20.483)"><path class="c" d="M22.7,14.29,14.3,22.7a5.991,5.991,0,0,0,8.4-8.405Z" transform="translate(-14.304 -14.29)"/></g><g transform="translate(18.178 18.148)"><path class="c" d="M18.664,12.663a6,6,0,0,0-4.755,9.643l8.4-8.4A5.927,5.927,0,0,0,18.664,12.663Z" transform="translate(-12.671 -12.663)"/></g></g></g></svg>