<svg xmlns="http://www.w3.org/2000/svg" xmlns:xlink="http://www.w3.org/1999/xlink" width="32.996" height="30.127" viewBox="0 0 32.996 30.127"><defs><style>.a,.c{fill:#fafafa;}.a{stroke:#707070;}.b{clip-path:url(#a);}</style><clipPath id="a"><rect class="a" width="32.996" height="30.127"/></clipPath></defs><g class="b"><g transform="translate(0 2.019)"><g transform="translate(0)"><path class="c" d="M31,3.9a1.5,1.5,0,0,0-1.5-1.5H2.605A1.5,1.5,0,0,0,1.071,3.865c0,.013,0,.026,0,.039v19.6H31ZM29.077,20.439a.767.767,0,0,1-.767.767H3.756a.767.767,0,0,1-.767-.767V4.71a.767.767,0,0,1,.767-.767H28.31a.767.767,0,0,1,.767.767v15.73Z" transform="translate(0.465 -2.407)"/><rect class="c" width="23.019" height="14.195" transform="translate(4.988 3.07)"/><path class="c" d="M32.995,18.608v-.422H0v.422a2.954,2.954,0,0,0,2.876,3.03H30A2.954,2.954,0,0,0,33,18.724Q33,18.666,32.995,18.608Z" transform="translate(0 4.45)"/></g></g></g></svg>